{
    "asset": {
        "generator": "COLLADA2GLTF",
        "version": "2.0"
    },
    "scenes": [
        {
            "nodes": [
                0
            ]
        }
    ],
    "scene": 0,
    "nodes": [
        {
            "children": [
                4,
                3,
                2,
                1
            ],
            "name": "Y_UP"
        },
        {
            "matrix": [
                0.5680000185966492,
                -0.8230000138282776,
                0.013000000268220902,
                0.0,
                0.5060000419616699,
                0.3620000183582306,
                0.7830000519752502,
                0.0,
                -0.6490000486373901,
                -0.4390000104904175,
                0.6220000386238098,
                0.0,
                -129.8209991455078,
                -87.76700592041016,
                124.4320068359375,
                1.0
            ],
            "camera": 0,
            "name": "node-camera"
        },
        {
            "mesh": 0,
            "matrix": [
                1.0,
                0.0,
                0.0,
                0.0,
                0.0,
                1.0,
                0.0,
                0.0,
                0.0,
                0.0,
                1.0,
                0.0,
                -38.04600143432617,
                26.99300193786621,
                7.950000286102295,
                1.0
            ],
            "name": "node-geom2"
        },
        {
            "mesh": 1,
            "matrix": [
                1.0,
                0.0,
                0.0,
                0.0,
                0.0,
                1.0,
                0.0,
                0.0,
                0.0,
                0.0,
                1.0,
                0.0,
                -38.04600143432617,
                26.99300193786621,
                7.950000286102295,
                1.0
            ],
            "name": "node-geom1"
        },
        {
            "mesh": 2,
            "matrix": [
                1.0,
                0.0,
                0.0,
                0.0,
                0.0,
                1.0,
                0.0,
                0.0,
                0.0,
                0.0,
                1.0,
                0.0,
                -38.04600143432617,
                26.99300193786621,
                7.950000286102295,
                1.0
            ],
            "name": "node-geom0"
        }
    ],
    "cameras": [
        {
            "perspective": {
                "aspectRatio": 1.2426999807357789,
                "yfov": 0.34906554222106936,
                "zfar": 309.7760009765625,
                "znear": 90.37779998779296
            },
            "type": "perspective",
            "name": "camera"
        }
    ],
    "meshes": [
        {
            "primitives": [
                {
                    "attributes": {
                        "COLOR_0": 1,
                        "NORMAL": 2,
                        "POSITION": 3
                    },
                    "indices": 0,
                    "mode": 4,
                    "material": 0
                }
            ],
            "name": "geom2"
        },
        {
            "primitives": [
                {
                    "attributes": {
                        "COLOR_0": 5,
                        "NORMAL": 6,
                        "POSITION": 7
                    },
                    "indices": 4,
                    "mode": 4,
                    "material": 1
                }
            ],
            "name": "geom1"
        },
        {
            "primitives": [
                {
                    "attributes": {
                        "COLOR_0": 9,
                        "NORMAL": 10,
                        "POSITION": 11
                    },
                    "indices": 8,
                    "mode": 4,
                    "material": 2
                }
            ],
            "name": "geom0"
        }
    ],
    "accessors": [
        {
            "bufferView": 0,
            "byteOffset": 0,
            "componentType": 5123,
            "count": 3744,
            "max": [
                811
            ],
            "min": [
                0
            ],
            "type": "SCALAR"
        },
        {
            "bufferView": 1,
            "byteOffset": 0,
            "componentType": 5126,
            "count": 812,
            "max": [
                1.0,
                1.0,
                1.0
            ],
            "min": [
                0.2319999933242798,
                0.01599999889731407,
                0.01599999889731407
            ],
            "type": "VEC3"
        },
        {
            "bufferView": 1,
            "byteOffset": 9744,
            "componentType": 5126,
            "count": 812,
            "max": [
                0.9984999895095824,
                1.3249999284744266,
                1.3496999740600589
            ],
            "min": [
                -0.9984999895095824,
                -1.3249999284744266,
                -1.3496999740600589
            ],
            "type": "VEC3"
        },
        {
            "bufferView": 1,
            "byteOffset": 19488,
            "componentType": 5126,
            "count": 812,
            "max": [
                59.287899017333987,
                10.373600006103516,
                13.157699584960938
            ],
            "min": [
                38.7509994506836,
                -5.627199649810791,
                -12.885199546813965
            ],
            "type": "VEC3"
        },
        {
            "bufferView": 0,
            "byteOffset": 7488,
            "componentType": 5123,
            "count": 40824,
            "max": [
                9488
            ],
            "min": [
                0
            ],
            "type": "SCALAR"
        },
        {
            "bufferView": 1,
            "byteOffset": 29232,
            "componentType": 5126,
            "count": 9489,
            "max": [
                1.0,
                1.0,
                1.0
            ],
            "min": [
                0.007999999448657036,
                0.007999999448657036,
                0.01599999889731407
            ],
            "type": "VEC3"
        },
        {
            "bufferView": 1,
            "byteOffset": 143100,
            "componentType": 5126,
            "count": 9489,
            "max": [
                1.3451999425888062,
                1.347000002861023,
                1.346400022506714
            ],
            "min": [
                -1.3451999425888062,
                -1.347000002861023,
                -1.346400022506714
            ],
            "type": "VEC3"
        },
        {
            "bufferView": 1,
            "byteOffset": 256968,
            "componentType": 5126,
            "count": 9489,
            "max": [
                65.04930114746094,
                10.39109992980957,
                13.286299705505373
            ],
            "min": [
                15.36259937286377,
                -29.851299285888673,
                -42.60139846801758
            ],
            "type": "VEC3"
        },
        {
            "bufferView": 0,
            "byteOffset": 89136,
            "componentType": 5123,
            "count": 38832,
            "max": [
                8914
            ],
            "min": [
                0
            ],
            "type": "SCALAR"
        },
        {
            "bufferView": 1,
            "byteOffset": 370836,
            "componentType": 5126,
            "count": 8915,
            "max": [
                1.0,
                1.0,
                1.0
            ],
            "min": [
                0.007999999448657036,
                0.007999999448657036,
                0.01599999889731407
            ],
            "type": "VEC3"
        },
        {
            "bufferView": 1,
            "byteOffset": 477816,
            "componentType": 5126,
            "count": 8915,
            "max": [
                1.3463000059127808,
                1.3497999906539918,
                1.3446999788284302
            ],
            "min": [
                -1.3463000059127808,
                -1.3497999906539918,
                -1.3446999788284302
            ],
            "type": "VEC3"
        },
        {
            "bufferView": 1,
            "byteOffset": 584796,
            "componentType": 5126,
            "count": 8915,
            "max": [
                54.42809677124024,
                0.6705999970436096,
                -1.3497999906539918
            ],
            "min": [
                15.043699264526368,
                -38.16709899902344,
                -42.60139846801758
            ],
            "type": "VEC3"
        }
    ],
    "materials": [
        {
            "pbrMetallicRoughness": {
                "metallicFactor": 0.0
            },
            "name": "default-effect"
        },
        {
            "pbrMetallicRoughness": {
                "metallicFactor": 0.0
            },
            "name": "default-effect"
        },
        {
            "pbrMetallicRoughness": {
                "metallicFactor": 0.0
            },
            "name": "default-effect"
        }
    ],
    "bufferViews": [
        {
            "buffer": 0,
            "byteOffset": 691776,
            "byteLength": 166800,
            "target": 34963
        },
        {
            "buffer": 0,
            "byteOffset": 0,
            "byteLength": 691776,
            "byteStride": 12,
            "target": 34962
        }
    ],
    "buffers": [
        {
            "byteLength": 858576,
            "uri": "data:application/octet-stream;base64,"
        }
    ]
}
